# xmcd
#
# Track frame offsets:
#	150
#	14881
#	21039
#	27850
#	40825
#	50570
#	56837
#	77017
#	92047
#	97061
#	103233
#	124919
#	138986
#	146536
#	153027
#	173165
#	185255
#	194683
#	201435
#	222536
#	245896
#	252438
#	265367
#	273886
#	296877
#	303530
#	315252
#
# Disc length: 4355 seconds
#
# Revision: 1
# Processed by: cddbd v1.5.2PL0 Copyright (c) Steve Scherf et al.
# Submitted via: audiograbber 1.83.01
#
DISCID=a011011b
DTITLE=Various Artist - The Complete Hit of the Week Recordings Vol. 4, Disc 1
DYEAR=2011
DGENRE=Jazz
TTITLE0=Phil Spitalny's Music - When It's Sleepy Time Down South
TTITLE1=Phil Spitalny's Music - Sailing
TTITLE2=Unknown - Frigidaire's New Year's Message
TTITLE3=Phil Spitalny's Music - Now's The Time To Fall In Love
TTITLE4=Phil Spitalny's Music - After The Ball
TTITLE5=BROWNbilt Melo-Clarions with the BROWNbilt Trio - Upside-Down In Love [
TTITLE5=ad for Brown Shoe Co.]
TTITLE6=Rudy Vallee with his Connecticut Yankees - Home
TTITLE7=Nick Lucas and his Troubadours - All Of Me
TTITLE8=Nick Lucas and his Troubadours - Good Night Ladies
TTITLE9=Unknown - Progress In Advertising, 1932 [ad for Durium]
TTITLE10=Rudy Vallee with his Connecticut Yankees - By The Sycamore Tree
TTITLE11=Erno Rapee's Orchestra - Save The Last Dance For Me
TTITLE12=Erno Rapee's Orchestra - Ida
TTITLE13=Myrt Vail and Donna Damarel - Wrigley's Presents Myrte And Marge
TTITLE14=Nick Lucas and his Troubadours - An Evening In Caroline
TTITLE15=Erno Rapee's Orchestra - This Is The Mrs.
TTITLE16=Erno Rapee's Orchestra - The Merry Widow Waltz
TTITLE17=Unknown - Talens In Song And Story
TTITLE18=Rudy Vallee with his Connecticut Yankees - Was That The Human Thing To
TTITLE18=Do?
TTITLE19=Morton Downey and the Camel Orchestra - Two Loves
TTITLE20=Roland Joy - Golden State Presents "Anchors Aweigh"
TTITLE21=Rudy Vallee with his Connecticut Yankees - The Wooden Soldier And The 
TTITLE21=China Doll [part 1]
TTITLE22=Rudy Vallee with his Connecticut Yankees - The Wooden Soldier And The 
TTITLE22=China Doll [part 2]
TTITLE23=Morton Downey and the Camel Orchestra - Kiss Me Goodnight
TTITLE24=Unknown - Mark Time: The End Of The Depression [ad for the Mark Time S
TTITLE24=witch]
TTITLE25=Phil Spitalny's Music - Auf Wiedersehen, My Dear
TTITLE26=Phil Spitalny's Music - Marta
EXTD=
EXTT0=
EXTT1=
EXTT2=
EXTT3=
EXTT4=
EXTT5=
EXTT6=
EXTT7=
EXTT8=
EXTT9=
EXTT10=
EXTT11=
EXTT12=
EXTT13=
EXTT14=
EXTT15=
EXTT16=
EXTT17=
EXTT18=
EXTT19=
EXTT20=
EXTT21=
EXTT22=
EXTT23=
EXTT24=
EXTT25=
EXTT26=
PLAYORDER=
